<svg width="269" height="73" viewBox="0 0 269 73" fill="none" xmlns="http://www.w3.org/2000/svg">
<g clip-path="url(#clip0_603_10247)">
<path d="M67.2847 22.2315H50.0852V4.77316C50.0852 2.14305 47.9555 0 45.3178 0H26.4967C23.8697 0 21.7292 2.13223 21.7292 4.77316V14.1571H29.0696V7.34915H42.7341V42.7636H36.7018V50.1128H50.0744V29.5806H64.701V42.7636H57.3823V50.1128H67.2739C69.9008 50.1128 72.0413 47.9806 72.0413 45.3396V27.0046C72.0413 24.3745 69.9117 22.2315 67.2847 22.2315Z" fill="#247CFF"/>
<path d="M42.7447 64.692H29.0803V29.5806H35.2206V22.2314H21.7399V42.7528H7.34033V29.5806H14.5401V22.2314H4.76743C2.12967 22.2314 0 24.3745 0 27.0046V45.3396C0 47.9697 2.12967 50.1128 4.76743 50.1128H21.7399V67.2788C21.7399 69.909 23.8696 72.052 26.5074 72.052H45.3284C47.9554 72.052 50.0959 69.9198 50.0959 67.2788V57.4078H42.7555V64.692H42.7447Z" fill="#247CFF"/>
</g>
<path d="M98.9178 20.0515C102.44 20.0515 105.53 20.7398 108.187 22.1166C110.877 23.4934 112.942 25.4625 114.383 28.024C115.855 30.5535 116.592 33.4991 116.592 36.8611C116.592 40.223 115.855 43.1687 114.383 45.6981C112.942 48.1955 110.877 50.1327 108.187 51.5094C105.53 52.8862 102.44 53.5746 98.9178 53.5746H87.1991V20.0515H98.9178ZM98.6777 47.8594C102.2 47.8594 104.921 46.8988 106.842 44.9777C108.763 43.0566 109.724 40.3511 109.724 36.8611C109.724 33.3711 108.763 30.6495 106.842 28.6964C104.921 26.7113 102.2 25.7187 98.6777 25.7187H93.9229V47.8594H98.6777Z" fill="#242424"/>
<path d="M133.44 54.0069C130.878 54.0069 128.573 53.4465 126.524 52.3259C124.475 51.1732 122.858 49.5563 121.673 47.4751C120.52 45.3939 119.944 42.9926 119.944 40.271C119.944 37.5495 120.536 35.1481 121.721 33.0669C122.938 30.9857 124.587 29.3848 126.668 28.2642C128.749 27.1115 131.07 26.5352 133.632 26.5352C136.193 26.5352 138.515 27.1115 140.596 28.2642C142.677 29.3848 144.31 30.9857 145.495 33.0669C146.711 35.1481 147.32 37.5495 147.32 40.271C147.32 42.9926 146.695 45.3939 145.447 47.4751C144.23 49.5563 142.565 51.1732 140.452 52.3259C138.371 53.4465 136.033 54.0069 133.44 54.0069ZM133.44 48.1475C134.656 48.1475 135.793 47.8594 136.85 47.283C137.938 46.6747 138.803 45.7782 139.443 44.5935C140.084 43.4088 140.404 41.968 140.404 40.271C140.404 37.7416 139.731 35.8045 138.387 34.4597C137.074 33.0829 135.457 32.3945 133.536 32.3945C131.615 32.3945 129.998 33.0829 128.685 34.4597C127.404 35.8045 126.764 37.7416 126.764 40.271C126.764 42.8005 127.388 44.7536 128.637 46.1304C129.918 47.4751 131.519 48.1475 133.44 48.1475Z" fill="#242424"/>
<path d="M150.523 40.271C150.523 37.5174 151.083 35.1161 152.204 33.0669C153.325 30.9857 154.877 29.3848 156.863 28.2642C158.848 27.1115 161.121 26.5352 163.682 26.5352C166.98 26.5352 169.702 27.3676 171.847 29.0326C174.024 30.6655 175.481 32.9708 176.218 35.9485H168.965C168.581 34.7959 167.925 33.8994 166.996 33.259C166.1 32.5866 164.979 32.2504 163.634 32.2504C161.713 32.2504 160.192 32.9548 159.072 34.3636C157.951 35.7404 157.391 37.7095 157.391 40.271C157.391 42.8005 157.951 44.7696 159.072 46.1784C160.192 47.5552 161.713 48.2436 163.634 48.2436C166.356 48.2436 168.133 47.0269 168.965 44.5935H176.218C175.481 47.4751 174.024 49.7644 171.847 51.4614C169.67 53.1584 166.948 54.0069 163.682 54.0069C161.121 54.0069 158.848 53.4465 156.863 52.3259C154.877 51.1732 153.325 49.5723 152.204 47.5232C151.083 45.442 150.523 43.0246 150.523 40.271Z" fill="#242424"/>
<path d="M179.414 40.175C179.414 37.4854 179.943 35.1001 180.999 33.0189C182.088 30.9377 183.561 29.3368 185.418 28.2161C187.275 27.0955 189.34 26.5352 191.613 26.5352C193.342 26.5352 194.991 26.9194 196.56 27.6878C198.129 28.4242 199.378 29.4168 200.306 30.6655V18.0343H207.126V53.5746H200.306V49.6364C199.474 50.9491 198.305 52.0057 196.8 52.8062C195.296 53.6066 193.551 54.0069 191.565 54.0069C189.324 54.0069 187.275 53.4305 185.418 52.2779C183.561 51.1252 182.088 49.5083 180.999 47.4271C179.943 45.3139 179.414 42.8965 179.414 40.175ZM200.354 40.271C200.354 38.6381 200.034 37.2453 199.394 36.0926C198.754 34.9079 197.889 34.0114 196.8 33.4031C195.712 32.7627 194.543 32.4425 193.294 32.4425C192.046 32.4425 190.893 32.7467 189.836 33.3551C188.78 33.9634 187.915 34.8599 187.243 36.0446C186.603 37.1973 186.282 38.574 186.282 40.175C186.282 41.7759 186.603 43.1847 187.243 44.4014C187.915 45.5861 188.78 46.4986 189.836 47.1389C190.925 47.7793 192.078 48.0995 193.294 48.0995C194.543 48.0995 195.712 47.7953 196.8 47.187C197.889 46.5466 198.754 45.6501 199.394 44.4974C200.034 43.3128 200.354 41.9039 200.354 40.271Z" fill="#242424"/>
<path d="M225.508 54.0069C222.947 54.0069 220.641 53.4465 218.592 52.3259C216.543 51.1732 214.926 49.5563 213.741 47.4751C212.589 45.3939 212.012 42.9926 212.012 40.271C212.012 37.5495 212.605 35.1481 213.789 33.0669C215.006 30.9857 216.655 29.3848 218.736 28.2642C220.817 27.1115 223.139 26.5352 225.7 26.5352C228.262 26.5352 230.583 27.1115 232.664 28.2642C234.745 29.3848 236.378 30.9857 237.563 33.0669C238.78 35.1481 239.388 37.5495 239.388 40.271C239.388 42.9926 238.764 45.3939 237.515 47.4751C236.298 49.5563 234.633 51.1732 232.52 52.3259C230.439 53.4465 228.102 54.0069 225.508 54.0069ZM225.508 48.1475C226.725 48.1475 227.861 47.8594 228.918 47.283C230.007 46.6747 230.871 45.7782 231.511 44.5935C232.152 43.4088 232.472 41.968 232.472 40.271C232.472 37.7416 231.8 35.8045 230.455 34.4597C229.142 33.0829 227.525 32.3945 225.604 32.3945C223.683 32.3945 222.066 33.0829 220.753 34.4597C219.473 35.8045 218.832 37.7416 218.832 40.271C218.832 42.8005 219.457 44.7536 220.705 46.1304C221.986 47.4751 223.587 48.1475 225.508 48.1475Z" fill="#242424"/>
<path d="M242.591 40.271C242.591 37.5174 243.152 35.1161 244.272 33.0669C245.393 30.9857 246.946 29.3848 248.931 28.2642C250.916 27.1115 253.189 26.5352 255.751 26.5352C259.049 26.5352 261.77 27.3676 263.915 29.0326C266.093 30.6655 267.549 32.9708 268.286 35.9485H261.034C260.65 34.7959 259.993 33.8994 259.065 33.259C258.168 32.5866 257.047 32.2504 255.703 32.2504C253.782 32.2504 252.261 32.9548 251.14 34.3636C250.019 35.7404 249.459 37.7095 249.459 40.271C249.459 42.8005 250.019 44.7696 251.14 46.1784C252.261 47.5552 253.782 48.2436 255.703 48.2436C258.424 48.2436 260.201 47.0269 261.034 44.5935H268.286C267.549 47.4751 266.093 49.7644 263.915 51.4614C261.738 53.1584 259.017 54.0069 255.751 54.0069C253.189 54.0069 250.916 53.4465 248.931 52.3259C246.946 51.1732 245.393 49.5723 244.272 47.5232C243.152 45.442 242.591 43.0246 242.591 40.271Z" fill="#242424"/>
<defs>
<clipPath id="clip0_603_10247">
<rect width="72.0412" height="72.0412" fill="white"/>
</clipPath>
</defs>
</svg>
