<svg width="32" height="32" viewBox="0 0 32 32" fill="none" xmlns="http://www.w3.org/2000/svg">
<path d="M28 16C28 9.37188 22.6281 4 16 4C9.37188 4 4 9.37188 4 16C4 21.9902 8.38563 26.9547 14.1259 27.8552V19.4716H11.0814V16H14.1259V13.3567C14.1259 10.3516 15.9142 8.68844 18.6564 8.68844C19.9713 8.68844 21.3456 8.92516 21.3456 8.92516V11.8773H19.8334C18.3409 11.8773 17.8806 12.8045 17.8806 13.7514V16H21.2078L20.6753 19.4716H17.8806V27.8552C23.6144 26.9547 28 21.9902 28 16Z" fill="#1877F2"/>
<path d="M20.6683 19.4715L21.2013 16H17.8741V13.7514C17.8741 12.8045 18.3409 11.8773 19.8269 11.8773H21.3391V8.92513C21.3391 8.92513 19.9647 8.68842 18.6498 8.68842C15.9081 8.68842 14.1194 10.352 14.1194 13.3567V16H11.0748V19.4715H14.1194V27.8551C14.7311 27.9536 15.3555 28 15.9934 28C16.6314 28 17.2558 27.9475 17.8675 27.8551V19.4715H20.6683Z" fill="white"/>
</svg>
