<svg width="32" height="32" viewBox="0 0 32 32" fill="none" xmlns="http://www.w3.org/2000/svg">
<path d="M28 16.2659C28 15.282 27.9183 14.5641 27.7415 13.8196H16.2449V18.2601H22.9931C22.8571 19.3637 22.1224 21.0256 20.4897 22.1423L20.4669 22.291L24.1019 25.0428L24.3537 25.0674C26.6666 22.98 28 19.9088 28 16.2659Z" fill="#4285F4"/>
<path d="M16.245 27.9656C19.551 27.9656 22.3265 26.9019 24.3538 25.0673L20.4898 22.1422C19.4558 22.8469 18.068 23.3388 16.245 23.3388C13.0069 23.3388 10.2586 21.2515 9.27892 18.3665L9.13532 18.3784L5.35558 21.2369L5.30615 21.3711C7.31974 25.2799 11.4558 27.9656 16.245 27.9656Z" fill="#34A853"/>
<path d="M9.27886 18.3666C9.02036 17.6221 8.87076 16.8243 8.87076 16.0001C8.87076 15.1757 9.02036 14.378 9.26526 13.6335L9.25841 13.475L5.43131 10.5706L5.30609 10.6288C4.4762 12.2508 4 14.0723 4 16.0001C4 17.9279 4.4762 19.7493 5.30609 21.3713L9.27886 18.3666Z" fill="#FBBC05"/>
<path d="M16.245 8.66089C18.5442 8.66089 20.0952 9.63144 20.9796 10.4425L24.4354 7.14527C22.313 5.21746 19.551 4.03418 16.245 4.03418C11.4558 4.03418 7.31974 6.7198 5.30615 10.6286L9.26532 13.6333C10.2586 10.7483 13.0069 8.66089 16.245 8.66089Z" fill="#EB4335"/>
</svg>
